<?xml version="1.0" standalone="no"?>
<!DOCTYPE svg PUBLIC "-//W3C//DTD SVG 20010904//EN"
 "http://www.w3.org/TR/2001/REC-SVG-20010904/DTD/svg10.dtd">
<svg version="1.0" xmlns="http://www.w3.org/2000/svg"
 width="1920.000000pt" height="1920.000000pt" viewBox="0 0 1920.000000 1920.000000"
 preserveAspectRatio="xMidYMid meet">

<g transform="translate(0.000000,1920.000000) scale(0.100000,-0.100000)"
fill="#000000" stroke="none">
<path d="M17425 17525 c-14 -13 -25 -36 -25 -50 0 -14 11 -37 25 -50 13 -14
36 -25 50 -25 14 0 37 11 50 25 14 13 25 36 25 50 0 14 -11 37 -25 50 -13 14
-36 25 -50 25 -14 0 -37 -11 -50 -25z"/>
<path d="M18015 17395 c-14 -13 -25 -36 -25 -50 0 -14 11 -37 25 -50 13 -14
36 -25 50 -25 14 0 37 11 50 25 14 13 25 36 25 50 0 14 -11 37 -25 50 -13 14
-36 25 -50 25 -14 0 -37 -11 -50 -25z"/>
<path d="M17155 16355 c-14 -13 -25 -36 -25 -50 0 -14 11 -37 25 -50 13 -14
36 -25 50 -25 14 0 37 11 50 25 14 13 25 36 25 50 0 14 -11 37 -25 50 -13 14
-36 25 -50 25 -14 0 -37 -11 -50 -25z"/>
<path d="M17785 15515 c-14 -13 -25 -36 -25 -50 0 -14 11 -37 25 -50 13 -14
36 -25 50 -25 14 0 37 11 50 25 14 13 25 36 25 50 0 14 -11 37 -25 50 -13 14
-36 25 -50 25 -14 0 -37 -11 -50 -25z"/>
<path d="M15875 15475 c-14 -13 -25 -36 -25 -50 0 -14 11 -37 25 -50 13 -14
36 -25 50 -25 14 0 37 11 50 25 14 13 25 36 25 50 0 14 -11 37 -25 50 -13 14
-36 25 -50 25 -14 0 -37 -11 -50 -25z"/>
<path d="M16255 15295 c-14 -13 -25 -36 -25 -50 0 -14 11 -37 25 -50 13 -14
36 -25 50 -25 14 0 37 11 50 25 14 13 25 36 25 50 0 14 -11 37 -25 50 -13 14
-36 25 -50 25 -14 0 -37 -11 -50 -25z"/>
<path d="M17385 14365 c-14 -13 -25 -36 -25 -50 0 -14 11 -37 25 -50 13 -14
36 -25 50 -25 14 0 37 11 50 25 14 13 25 36 25 50 0 14 -11 37 -25 50 -13 14
-36 25 -50 25 -14 0 -37 -11 -50 -25z"/>
<path d="M15615 13405 c-14 -13 -25 -36 -25 -50 0 -14 11 -37 25 -50 13 -14
36 -25 50 -25 14 0 37 11 50 25 14 13 25 36 25 50 0 14 -11 37 -25 50 -13 14
-36 25 -50 25 -14 0 -37 -11 -50 -25z"/>
<path d="M16215 13025 c-14 -13 -25 -36 -25 -50 0 -14 11 -37 25 -50 13 -14
36 -25 50 -25 14 0 37 11 50 25 14 13 25 36 25 50 0 14 -11 37 -25 50 -13 14
-36 25 -50 25 -14 0 -37 -11 -50 -25z"/>
<path d="M15680 12892 c-92 -45 -87 -179 7 -219 43 -18 90 -11 127 18 l26 21
351 -108 c321 -99 352 -111 361 -134 5 -14 18 -34 28 -45 19 -20 18 -32 -36
-735 l-55 -714 -32 -28 c-19 -16 -44 -27 -62 -28 -220 -2 -2821 52 -2823 59
-9 28 -48 62 -81 72 -49 14 -102 -1 -131 -39 l-21 -26 -454 -10 -453 -9 -27
31 c-14 17 -46 38 -71 48 l-45 17 31 19 c65 39 75 134 21 189 -77 77 -206 23
-206 -86 0 -52 26 -92 72 -112 l36 -15 -39 -17 c-21 -10 -47 -27 -56 -37 -26
-29 -48 -89 -48 -128 l0 -34 -450 -260 c-444 -256 -450 -259 -487 -249 -74 19
-139 -30 -150 -112 -5 -39 -16 -49 -462 -409 -251 -202 -761 -614 -1133 -915
l-677 -547 -44 12 c-38 10 -49 9 -83 -8 -74 -36 -93 -127 -40 -191 l23 -28
-379 -766 -380 -766 -38 -12 c-77 -23 -107 -99 -70 -175 l22 -46 -173 -374
-173 -374 -32 5 c-26 4 -38 0 -58 -20 -33 -33 -33 -71 -2 -102 l25 -25 -30
-68 c-29 -64 -32 -68 -59 -64 -21 3 -36 -3 -54 -21 -31 -31 -33 -65 -6 -100
l20 -25 -31 -70 c-29 -65 -34 -71 -67 -77 -24 -4 -49 -20 -72 -44 l-35 -38
-739 -38 -739 -37 -24 31 c-32 41 -88 58 -139 41 l-38 -13 -998 499 c-991 495
-998 499 -998 529 0 37 -30 104 -56 127 -27 23 -88 48 -119 48 -15 0 -48 -9
-75 -21 l-49 -21 -344 208 -343 207 0 48 1 47 157 106 157 106 43 -11 c79 -21
144 25 155 110 5 37 18 51 207 214 l202 174 23 -18 c32 -26 67 -24 96 6 28 27
32 61 10 91 -13 20 -8 27 121 136 l134 115 39 -10 c75 -20 164 26 194 102 14
35 20 39 61 45 38 6 50 3 76 -16 64 -47 157 -22 187 49 43 105 -63 206 -164
157 -23 -12 -44 -32 -53 -51 -13 -27 -22 -33 -59 -39 -41 -6 -45 -5 -69 26
-29 37 -93 70 -137 70 -109 0 -195 -112 -166 -217 11 -44 11 -47 -15 -75 -15
-15 -31 -28 -35 -28 -4 0 -16 17 -26 38 -37 75 -135 92 -194 33 -57 -57 -42
-157 29 -192 l33 -17 -271 -233 -271 -234 -59 0 c-75 0 -109 -23 -131 -91 -16
-47 -22 -53 -175 -158 -150 -103 -162 -109 -211 -110 -65 -2 -103 -27 -122
-83 -28 -79 23 -151 115 -160 42 -5 102 -37 405 -220 344 -209 355 -216 351
-243 -9 -65 36 -141 102 -171 56 -25 94 -24 152 7 l49 25 997 -498 c975 -487
997 -498 1003 -529 8 -44 39 -80 80 -94 45 -15 89 -5 128 30 l32 28 746 38
747 38 31 -27 c17 -14 46 -29 64 -32 21 -5 39 -18 52 -38 29 -46 90 -66 140
-46 52 19 80 60 80 114 0 59 -29 96 -89 115 -34 11 -48 21 -53 38 -8 35 604
1355 626 1348 87 -29 97 -30 137 -10 106 52 86 208 -30 229 -20 4 -36 11 -34
15 2 4 52 109 112 233 l109 225 28 -29 c34 -36 71 -38 104 -4 32 31 32 69 -1
102 -19 19 -33 24 -55 21 -16 -3 -29 -4 -29 -3 0 1 110 224 244 497 207 418
250 499 280 522 25 19 40 41 49 74 13 47 24 56 1148 965 l1134 917 42 -5 c45
-7 99 11 122 39 8 9 20 38 26 64 l12 47 442 256 442 256 46 -24 c56 -28 94
-29 149 -4 46 21 78 57 94 105 l10 33 443 10 442 10 23 -28 c45 -56 141 -60
187 -9 17 19 30 20 414 14 461 -6 481 -7 481 -35 0 -28 44 -69 75 -69 31 0 75
41 75 70 l0 22 448 -7 c546 -7 542 -7 564 -45 30 -52 105 -50 130 5 11 25 13
25 123 25 61 0 213 -3 337 -7 l225 -6 17 -31 16 -31 -378 -795 -379 -794 -41
-17 c-72 -31 -99 -104 -63 -172 l20 -39 -171 -548 -172 -548 -37 -15 c-47 -18
-74 -59 -74 -112 0 -109 129 -163 206 -86 39 39 46 90 21 142 l-21 41 172 549
171 549 33 11 c67 22 95 90 68 167 l-17 47 379 795 c373 782 380 795 419 815
78 40 94 136 33 198 l-30 30 55 711 c41 539 58 712 68 715 27 9 67 59 73 93 9
45 -14 101 -51 125 -39 25 -105 24 -141 -3 l-28 -21 -270 84 c-149 45 -307 94
-352 108 -71 22 -84 29 -102 61 -20 34 -71 64 -108 64 -10 0 -34 -8 -53 -18z"/>
<path d="M14545 12775 c-14 -13 -25 -36 -25 -50 0 -14 11 -37 25 -50 13 -14
36 -25 50 -25 14 0 37 11 50 25 14 13 25 36 25 50 0 14 -11 37 -25 50 -13 14
-36 25 -50 25 -14 0 -37 -11 -50 -25z"/>
<path d="M16170 12393 c-21 -11 -42 -33 -54 -57 -17 -34 -18 -45 -8 -83 9 -32
9 -54 1 -85 -22 -82 32 -153 116 -153 84 0 138 71 116 153 -8 31 -8 53 0 85
28 104 -76 189 -171 140z"/>
<path d="M14625 12295 c-14 -13 -25 -36 -25 -50 0 -14 11 -37 25 -50 13 -14
36 -25 50 -25 14 0 37 11 50 25 14 13 25 36 25 50 0 14 -11 37 -25 50 -13 14
-36 25 -50 25 -14 0 -37 -11 -50 -25z"/>
<path d="M10255 12175 c-14 -13 -25 -36 -25 -50 0 -14 11 -37 25 -50 13 -14
36 -25 50 -25 14 0 37 11 50 25 14 13 25 36 25 50 0 14 -11 37 -25 50 -13 14
-36 25 -50 25 -14 0 -37 -11 -50 -25z"/>
<path d="M14935 12035 c-14 -13 -25 -36 -25 -50 0 -14 11 -37 25 -50 13 -14
36 -25 50 -25 14 0 37 11 50 25 14 13 25 36 25 50 0 14 -11 37 -25 50 -13 14
-36 25 -50 25 -14 0 -37 -11 -50 -25z"/>
<path d="M17375 11645 c-14 -13 -25 -36 -25 -50 0 -14 11 -37 25 -50 13 -14
36 -25 50 -25 14 0 37 11 50 25 14 13 25 36 25 50 0 14 -11 37 -25 50 -13 14
-36 25 -50 25 -14 0 -37 -11 -50 -25z"/>
<path d="M1955 11425 c-14 -13 -25 -36 -25 -50 0 -33 42 -75 75 -75 33 0 75
42 75 75 0 33 -42 75 -75 75 -14 0 -37 -11 -50 -25z"/>
<path d="M13580 11233 c-92 -47 -87 -180 7 -220 47 -19 98 -9 134 26 97 97
-19 257 -141 194z"/>
<path d="M10305 11205 c-14 -13 -25 -36 -25 -50 0 -14 11 -37 25 -50 13 -14
36 -25 50 -25 14 0 37 11 50 25 14 13 25 36 25 50 0 14 -11 37 -25 50 -13 14
-36 25 -50 25 -14 0 -37 -11 -50 -25z"/>
<path d="M11985 11095 c-14 -13 -25 -36 -25 -50 0 -14 11 -37 25 -50 13 -14
36 -25 50 -25 14 0 37 11 50 25 14 13 25 36 25 50 0 14 -11 37 -25 50 -13 14
-36 25 -50 25 -14 0 -37 -11 -50 -25z"/>
<path d="M15305 11095 c-14 -13 -25 -36 -25 -50 0 -14 11 -37 25 -50 13 -14
36 -25 50 -25 14 0 37 11 50 25 14 13 25 36 25 50 0 14 -11 37 -25 50 -13 14
-36 25 -50 25 -14 0 -37 -11 -50 -25z"/>
<path d="M2210 11033 c-92 -47 -87 -180 7 -220 102 -42 202 58 160 160 -28 65
-104 93 -167 60z"/>
<path d="M10065 10805 c-14 -13 -25 -36 -25 -50 0 -33 42 -75 75 -75 33 0 75
42 75 75 0 33 -42 75 -75 75 -14 0 -37 -11 -50 -25z"/>
<path d="M6175 10735 c-14 -13 -25 -36 -25 -50 0 -33 42 -75 75 -75 33 0 75
42 75 75 0 33 -42 75 -75 75 -14 0 -37 -11 -50 -25z"/>
<path d="M7015 10655 c-14 -13 -25 -36 -25 -50 0 -33 42 -75 75 -75 33 0 75
42 75 75 0 33 -42 75 -75 75 -14 0 -37 -11 -50 -25z"/>
<path d="M14075 10575 c-14 -13 -25 -36 -25 -50 0 -14 11 -37 25 -50 13 -14
36 -25 50 -25 14 0 37 11 50 25 14 13 25 36 25 50 0 14 -11 37 -25 50 -13 14
-36 25 -50 25 -14 0 -37 -11 -50 -25z"/>
<path d="M15115 10545 c-14 -13 -25 -36 -25 -50 0 -14 11 -37 25 -50 13 -14
36 -25 50 -25 14 0 37 11 50 25 14 13 25 36 25 50 0 14 -11 37 -25 50 -13 14
-36 25 -50 25 -14 0 -37 -11 -50 -25z"/>
<path d="M15685 10405 c-14 -13 -25 -36 -25 -50 0 -14 11 -37 25 -50 13 -14
36 -25 50 -25 14 0 37 11 50 25 14 13 25 36 25 50 0 14 -11 37 -25 50 -13 14
-36 25 -50 25 -14 0 -37 -11 -50 -25z"/>
<path d="M3815 10395 c-14 -13 -25 -36 -25 -50 0 -33 42 -75 75 -75 33 0 75
42 75 75 0 33 -42 75 -75 75 -14 0 -37 -11 -50 -25z"/>
<path d="M8695 10315 c-14 -13 -25 -36 -25 -50 0 -33 42 -75 75 -75 33 0 75
42 75 75 0 33 -42 75 -75 75 -14 0 -37 -11 -50 -25z"/>
<path d="M17155 10215 c-14 -13 -25 -36 -25 -50 0 -33 42 -75 75 -75 33 0 75
42 75 75 0 33 -42 75 -75 75 -14 0 -37 -11 -50 -25z"/>
<path d="M16325 10115 c-14 -13 -25 -36 -25 -50 0 -33 42 -75 75 -75 33 0 75
42 75 75 0 33 -42 75 -75 75 -14 0 -37 -11 -50 -25z"/>
<path d="M5935 10095 c-14 -13 -25 -36 -25 -50 0 -14 11 -37 25 -50 13 -14 36
-25 50 -25 14 0 37 11 50 25 14 13 25 36 25 50 0 14 -11 37 -25 50 -13 14 -36
25 -50 25 -14 0 -37 -11 -50 -25z"/>
<path d="M15530 10083 c-92 -47 -87 -180 7 -220 102 -42 202 58 160 160 -28
65 -104 93 -167 60z"/>
<path d="M5725 10055 c-14 -13 -25 -36 -25 -50 0 -14 11 -37 25 -50 13 -14 36
-25 50 -25 14 0 37 11 50 25 14 13 25 36 25 50 0 14 -11 37 -25 50 -13 14 -36
25 -50 25 -14 0 -37 -11 -50 -25z"/>
<path d="M4135 9955 c-14 -13 -25 -36 -25 -50 0 -33 42 -75 75 -75 33 0 75 42
75 75 0 33 -42 75 -75 75 -14 0 -37 -11 -50 -25z"/>
<path d="M6335 9875 c-14 -13 -25 -36 -25 -50 0 -14 11 -37 25 -50 13 -14 36
-25 50 -25 14 0 37 11 50 25 14 13 25 36 25 50 0 14 -11 37 -25 50 -13 14 -36
25 -50 25 -14 0 -37 -11 -50 -25z"/>
<path d="M14120 9843 c-92 -47 -87 -180 7 -220 102 -42 202 58 160 160 -28 65
-104 93 -167 60z"/>
<path d="M1620 9769 c-54 -36 -70 -55 -70 -86 0 -35 44 -75 78 -72 19 2 35 -5
54 -24 34 -34 71 -35 104 -2 14 14 34 25 45 25 28 0 69 44 69 75 0 32 -41 75
-72 75 -13 0 -34 -7 -46 -16 -13 -9 -22 -11 -22 -4 0 20 -49 60 -72 60 -13 0
-43 -14 -68 -31z"/>
<path d="M2855 9755 c-14 -13 -25 -36 -25 -50 0 -33 42 -75 75 -75 33 0 75 42
75 75 0 33 -42 75 -75 75 -14 0 -37 -11 -50 -25z"/>
<path d="M14655 9715 c-14 -13 -25 -36 -25 -50 0 -33 42 -75 75 -75 33 0 75
42 75 75 0 33 -42 75 -75 75 -14 0 -37 -11 -50 -25z"/>
<path d="M16755 9685 c-14 -13 -25 -36 -25 -50 0 -33 42 -75 75 -75 33 0 75
42 75 75 0 33 -42 75 -75 75 -14 0 -37 -11 -50 -25z"/>
<path d="M13150 9653 c-92 -47 -87 -180 7 -220 102 -42 202 58 160 160 -28 65
-104 93 -167 60z"/>
<path d="M5985 9555 c-14 -13 -25 -36 -25 -50 0 -14 11 -37 25 -50 13 -14 36
-25 50 -25 14 0 37 11 50 25 14 13 25 36 25 50 0 14 -11 37 -25 50 -13 14 -36
25 -50 25 -14 0 -37 -11 -50 -25z"/>
<path d="M1495 9545 c-14 -13 -25 -36 -25 -50 0 -33 42 -75 75 -75 33 0 75 42
75 75 0 33 -42 75 -75 75 -14 0 -37 -11 -50 -25z"/>
<path d="M12275 9535 c-14 -13 -25 -36 -25 -50 0 -33 42 -75 75 -75 33 0 75
42 75 75 0 33 -42 75 -75 75 -14 0 -37 -11 -50 -25z"/>
<path d="M1754 9495 c-17 -17 -25 -34 -23 -53 2 -15 -4 -38 -14 -52 -9 -13
-17 -35 -17 -48 0 -31 43 -72 75 -72 36 0 77 43 74 78 -2 15 4 38 14 52 24 34
21 67 -8 95 -31 32 -69 32 -101 0z"/>
<path d="M7605 9455 c-14 -13 -25 -36 -25 -50 0 -14 11 -37 25 -50 13 -14 36
-25 50 -25 14 0 37 11 50 25 14 13 25 36 25 50 0 14 -11 37 -25 50 -13 14 -36
25 -50 25 -14 0 -37 -11 -50 -25z"/>
<path d="M4825 9365 c-14 -13 -25 -36 -25 -50 0 -33 42 -75 75 -75 33 0 75 42
75 75 0 33 -42 75 -75 75 -14 0 -37 -11 -50 -25z"/>
<path d="M5565 9345 c-14 -13 -25 -36 -25 -50 0 -14 11 -37 25 -50 13 -14 36
-25 50 -25 14 0 37 11 50 25 14 13 25 36 25 50 0 14 -11 37 -25 50 -13 14 -36
25 -50 25 -14 0 -37 -11 -50 -25z"/>
<path d="M4015 9305 c-14 -13 -25 -36 -25 -50 0 -33 42 -75 75 -75 33 0 75 42
75 75 0 33 -42 75 -75 75 -14 0 -37 -11 -50 -25z"/>
<path d="M16375 9215 c-32 -31 -32 -69 0 -101 18 -18 34 -25 55 -22 26 2 33
-2 48 -32 45 -92 179 -87 219 7 43 105 -64 206 -166 156 -37 -19 -39 -19 -61
-1 -31 25 -66 23 -95 -7z"/>
<path d="M16930 9203 c-92 -47 -87 -180 7 -220 102 -42 202 58 160 160 -28 65
-104 93 -167 60z"/>
<path d="M1645 9175 c-14 -13 -25 -36 -25 -50 0 -33 42 -75 75 -75 33 0 75 42
75 75 0 33 -42 75 -75 75 -14 0 -37 -11 -50 -25z"/>
<path d="M13835 9155 c-14 -13 -25 -36 -25 -50 0 -33 42 -75 75 -75 33 0 75
42 75 75 0 33 -42 75 -75 75 -14 0 -37 -11 -50 -25z"/>
<path d="M8205 9015 c-14 -13 -25 -36 -25 -50 0 -14 11 -37 25 -50 13 -14 36
-25 50 -25 14 0 37 11 50 25 14 13 25 36 25 50 0 14 -11 37 -25 50 -13 14 -36
25 -50 25 -14 0 -37 -11 -50 -25z"/>
<path d="M5075 8955 c-14 -13 -25 -36 -25 -50 0 -33 42 -75 75 -75 14 0 37 11
50 25 14 13 25 36 25 50 0 14 -11 37 -25 50 -13 14 -36 25 -50 25 -14 0 -37
-11 -50 -25z"/>
<path d="M12725 8955 c-14 -13 -25 -36 -25 -50 0 -33 42 -75 75 -75 33 0 75
42 75 75 0 33 -42 75 -75 75 -14 0 -37 -11 -50 -25z"/>
<path d="M7955 8865 c-14 -13 -25 -36 -25 -50 0 -14 11 -37 25 -50 13 -14 36
-25 50 -25 14 0 37 11 50 25 14 13 25 36 25 50 0 14 -11 37 -25 50 -13 14 -36
25 -50 25 -14 0 -37 -11 -50 -25z"/>
<path d="M1665 8835 c-14 -13 -25 -36 -25 -50 0 -33 42 -75 75 -75 33 0 75 42
75 75 0 33 -42 75 -75 75 -14 0 -37 -11 -50 -25z"/>
<path d="M16055 8835 c-14 -13 -25 -36 -25 -50 0 -33 42 -75 75 -75 33 0 75
42 75 75 0 33 -42 75 -75 75 -14 0 -37 -11 -50 -25z"/>
<path d="M9625 8815 c-14 -13 -25 -36 -25 -50 0 -14 11 -37 25 -50 13 -14 36
-25 50 -25 14 0 37 11 50 25 14 13 25 36 25 50 0 14 -11 37 -25 50 -13 14 -36
25 -50 25 -14 0 -37 -11 -50 -25z"/>
<path d="M5685 8785 c-14 -13 -25 -36 -25 -50 0 -14 11 -37 25 -50 13 -14 36
-25 50 -25 14 0 37 11 50 25 14 13 25 36 25 50 0 14 -11 37 -25 50 -13 14 -36
25 -50 25 -14 0 -37 -11 -50 -25z"/>
<path d="M7020 8773 c-92 -47 -87 -180 7 -220 47 -19 98 -9 134 26 97 97 -19
257 -141 194z"/>
<path d="M2765 8755 c-14 -13 -25 -36 -25 -50 0 -33 42 -75 75 -75 33 0 75 42
75 75 0 33 -42 75 -75 75 -14 0 -37 -11 -50 -25z"/>
<path d="M13745 8695 c-14 -13 -25 -36 -25 -50 0 -33 42 -75 75 -75 33 0 75
42 75 75 0 33 -42 75 -75 75 -14 0 -37 -11 -50 -25z"/>
<path d="M1465 8675 c-14 -13 -25 -36 -25 -50 0 -33 42 -75 75 -75 33 0 75 42
75 75 0 33 -42 75 -75 75 -14 0 -37 -11 -50 -25z"/>
<path d="M4265 8545 c-14 -13 -25 -36 -25 -50 0 -33 42 -75 75 -75 33 0 75 42
75 75 0 33 -42 75 -75 75 -14 0 -37 -11 -50 -25z"/>
<path d="M15965 8455 c-14 -13 -25 -36 -25 -50 0 -33 42 -75 75 -75 33 0 75
42 75 75 0 33 -42 75 -75 75 -14 0 -37 -11 -50 -25z"/>
<path d="M7455 8425 c-14 -13 -25 -36 -25 -50 0 -14 11 -37 25 -50 13 -14 36
-25 50 -25 14 0 37 11 50 25 14 13 25 36 25 50 0 14 -11 37 -25 50 -13 14 -36
25 -50 25 -14 0 -37 -11 -50 -25z"/>
<path d="M6815 8415 c-14 -13 -25 -36 -25 -50 0 -14 11 -37 25 -50 13 -14 36
-25 50 -25 14 0 37 11 50 25 14 13 25 36 25 50 0 14 -11 37 -25 50 -13 14 -36
25 -50 25 -14 0 -37 -11 -50 -25z"/>
<path d="M9665 8335 c-14 -13 -25 -36 -25 -50 0 -14 11 -37 25 -50 13 -14 36
-25 50 -25 14 0 37 11 50 25 14 13 25 36 25 50 0 14 -11 37 -25 50 -13 14 -36
25 -50 25 -14 0 -37 -11 -50 -25z"/>
<path d="M14615 8085 c-14 -13 -25 -36 -25 -50 0 -33 42 -75 75 -75 33 0 75
42 75 75 0 33 -42 75 -75 75 -14 0 -37 -11 -50 -25z"/>
<path d="M3515 8065 c-14 -13 -25 -36 -25 -50 0 -33 42 -75 75 -75 33 0 75 42
75 75 0 33 -42 75 -75 75 -14 0 -37 -11 -50 -25z"/>
<path d="M1950 8033 c-92 -47 -87 -180 7 -220 102 -42 202 58 160 160 -28 65
-104 93 -167 60z"/>
<path d="M4875 8005 c-14 -13 -25 -36 -25 -50 0 -33 42 -75 75 -75 33 0 75 42
75 75 0 33 -42 75 -75 75 -14 0 -37 -11 -50 -25z"/>
<path d="M10590 7823 c-92 -47 -87 -180 7 -220 102 -42 202 58 160 160 -28 65
-104 93 -167 60z"/>
<path d="M4845 7745 c-14 -13 -25 -36 -25 -50 0 -33 42 -75 75 -75 33 0 75 42
75 75 0 33 -42 75 -75 75 -14 0 -37 -11 -50 -25z"/>
<path d="M11495 7645 c-14 -13 -25 -36 -25 -50 0 -33 42 -75 75 -75 33 0 75
42 75 75 0 33 -42 75 -75 75 -14 0 -37 -11 -50 -25z"/>
<path d="M2245 7525 c-14 -13 -25 -36 -25 -50 0 -33 42 -75 75 -75 33 0 75 42
75 75 0 33 -42 75 -75 75 -14 0 -37 -11 -50 -25z"/>
<path d="M4055 7525 c-14 -13 -25 -36 -25 -50 0 -33 42 -75 75 -75 33 0 75 42
75 75 0 33 -42 75 -75 75 -14 0 -37 -11 -50 -25z"/>
<path d="M13295 7465 c-14 -13 -25 -36 -25 -50 0 -33 42 -75 75 -75 33 0 75
42 75 75 0 33 -42 75 -75 75 -14 0 -37 -11 -50 -25z"/>
<path d="M6515 7425 c-14 -13 -25 -36 -25 -50 0 -14 11 -37 25 -50 13 -14 36
-25 50 -25 14 0 37 11 50 25 14 13 25 36 25 50 0 14 -11 37 -25 50 -13 14 -36
25 -50 25 -14 0 -37 -11 -50 -25z"/>
<path d="M5885 7375 c-14 -13 -25 -36 -25 -50 0 -14 11 -37 25 -50 13 -14 36
-25 50 -25 14 0 37 11 50 25 14 13 25 36 25 50 0 14 -11 37 -25 50 -13 14 -36
25 -50 25 -14 0 -37 -11 -50 -25z"/>
<path d="M9860 7373 c-92 -47 -87 -180 7 -220 47 -19 98 -9 134 26 97 97 -19
257 -141 194z"/>
<path d="M7345 7355 c-14 -13 -25 -36 -25 -50 0 -14 11 -37 25 -50 13 -14 36
-25 50 -25 14 0 37 11 50 25 14 13 25 36 25 50 0 14 -11 37 -25 50 -13 14 -36
25 -50 25 -14 0 -37 -11 -50 -25z"/>
<path d="M5525 7325 c-14 -13 -25 -36 -25 -50 0 -14 11 -37 25 -50 13 -14 36
-25 50 -25 14 0 37 11 50 25 14 13 25 36 25 50 0 14 -11 37 -25 50 -13 14 -36
25 -50 25 -14 0 -37 -11 -50 -25z"/>
<path d="M1175 7145 c-14 -13 -25 -36 -25 -50 0 -33 42 -75 75 -75 33 0 75 42
75 75 0 33 -42 75 -75 75 -14 0 -37 -11 -50 -25z"/>
<path d="M12455 7105 c-14 -13 -25 -36 -25 -50 0 -33 42 -75 75 -75 33 0 75
42 75 75 0 33 -42 75 -75 75 -14 0 -37 -11 -50 -25z"/>
<path d="M13095 7085 c-14 -13 -25 -36 -25 -50 0 -33 42 -75 75 -75 33 0 75
42 75 75 0 33 -42 75 -75 75 -14 0 -37 -11 -50 -25z"/>
<path d="M1785 6945 c-14 -13 -25 -36 -25 -50 0 -33 42 -75 75 -75 33 0 75 42
75 75 0 33 -42 75 -75 75 -14 0 -37 -11 -50 -25z"/>
<path d="M5545 6915 c-14 -13 -25 -36 -25 -50 0 -14 11 -37 25 -50 13 -14 36
-25 50 -25 14 0 37 11 50 25 14 13 25 36 25 50 0 14 -11 37 -25 50 -13 14 -36
25 -50 25 -14 0 -37 -11 -50 -25z"/>
<path d="M6615 6875 c-14 -13 -25 -36 -25 -50 0 -14 11 -37 25 -50 13 -14 36
-25 50 -25 14 0 37 11 50 25 14 13 25 36 25 50 0 14 -11 37 -25 50 -13 14 -36
25 -50 25 -14 0 -37 -11 -50 -25z"/>
<path d="M5735 6805 c-14 -13 -25 -36 -25 -50 0 -14 11 -37 25 -50 13 -14 36
-25 50 -25 14 0 37 11 50 25 14 13 25 36 25 50 0 14 -11 37 -25 50 -13 14 -36
25 -50 25 -14 0 -37 -11 -50 -25z"/>
<path d="M1265 6755 c-14 -13 -25 -36 -25 -50 0 -33 42 -75 75 -75 33 0 75 42
75 75 0 33 -42 75 -75 75 -14 0 -37 -11 -50 -25z"/>
<path d="M1910 6693 c-92 -47 -87 -180 7 -220 102 -42 202 58 160 160 -28 65
-104 93 -167 60z"/>
<path d="M1655 6625 c-14 -13 -25 -36 -25 -50 0 -33 42 -75 75 -75 33 0 75 42
75 75 0 33 -42 75 -75 75 -14 0 -37 -11 -50 -25z"/>
<path d="M9295 6555 c-14 -13 -25 -36 -25 -50 0 -14 11 -37 25 -50 13 -14 36
-25 50 -25 14 0 37 11 50 25 14 13 25 36 25 50 0 14 -11 37 -25 50 -13 14 -36
25 -50 25 -14 0 -37 -11 -50 -25z"/>
<path d="M1130 6523 c-92 -47 -87 -180 7 -220 102 -42 202 58 160 160 -28 65
-104 93 -167 60z"/>
<path d="M8695 6225 c-14 -13 -25 -36 -25 -50 0 -14 11 -37 25 -50 13 -14 36
-25 50 -25 14 0 37 11 50 25 14 13 25 36 25 50 0 14 -11 37 -25 50 -13 14 -36
25 -50 25 -14 0 -37 -11 -50 -25z"/>
<path d="M10785 6135 c-14 -13 -25 -36 -25 -50 0 -33 42 -75 75 -75 33 0 75
42 75 75 0 33 -42 75 -75 75 -14 0 -37 -11 -50 -25z"/>
<path d="M10365 6125 c-14 -13 -25 -36 -25 -50 0 -33 42 -75 75 -75 33 0 75
42 75 75 0 33 -42 75 -75 75 -14 0 -37 -11 -50 -25z"/>
<path d="M3565 6085 c-14 -13 -25 -36 -25 -50 0 -33 42 -75 75 -75 33 0 75 42
75 75 0 33 -42 75 -75 75 -14 0 -37 -11 -50 -25z"/>
<path d="M7225 6065 c-14 -13 -25 -36 -25 -50 0 -14 11 -37 25 -50 13 -14 36
-25 50 -25 14 0 37 11 50 25 14 13 25 36 25 50 0 14 -11 37 -25 50 -13 14 -36
25 -50 25 -14 0 -37 -11 -50 -25z"/>
<path d="M8265 5995 c-14 -13 -25 -36 -25 -50 0 -14 11 -37 25 -50 13 -14 36
-25 50 -25 14 0 37 11 50 25 14 13 25 36 25 50 0 14 -11 37 -25 50 -13 14 -36
25 -50 25 -14 0 -37 -11 -50 -25z"/>
<path d="M2365 5955 c-14 -13 -25 -36 -25 -50 0 -33 42 -75 75 -75 33 0 75 42
75 75 0 33 -42 75 -75 75 -14 0 -37 -11 -50 -25z"/>
<path d="M8405 5675 c-14 -13 -25 -36 -25 -50 0 -14 11 -37 25 -50 13 -14 36
-25 50 -25 14 0 37 11 50 25 14 13 25 36 25 50 0 14 -11 37 -25 50 -13 14 -36
25 -50 25 -14 0 -37 -11 -50 -25z"/>
<path d="M7545 5545 c-14 -13 -25 -36 -25 -50 0 -14 11 -37 25 -50 13 -14 36
-25 50 -25 14 0 37 11 50 25 14 13 25 36 25 50 0 14 -11 37 -25 50 -13 14 -36
25 -50 25 -14 0 -37 -11 -50 -25z"/>
<path d="M7525 5275 c-14 -13 -25 -36 -25 -50 0 -14 11 -37 25 -50 13 -14 36
-25 50 -25 14 0 37 11 50 25 14 13 25 36 25 50 0 14 -11 37 -25 50 -13 14 -36
25 -50 25 -14 0 -37 -11 -50 -25z"/>
<path d="M10385 5145 c-14 -13 -25 -36 -25 -50 0 -33 42 -75 75 -75 33 0 75
42 75 75 0 33 -42 75 -75 75 -14 0 -37 -11 -50 -25z"/>
<path d="M10815 5075 c-14 -13 -25 -36 -25 -50 0 -33 42 -75 75 -75 33 0 75
42 75 75 0 33 -42 75 -75 75 -14 0 -37 -11 -50 -25z"/>
<path d="M8225 4965 c-14 -13 -25 -36 -25 -50 0 -33 42 -75 75 -75 33 0 75 42
75 75 0 33 -42 75 -75 75 -14 0 -37 -11 -50 -25z"/>
<path d="M1180 4963 c-92 -47 -87 -180 7 -220 102 -42 202 58 160 160 -28 65
-104 93 -167 60z"/>
<path d="M9465 4825 c-14 -13 -25 -36 -25 -50 0 -33 42 -75 75 -75 33 0 75 42
75 75 0 33 -42 75 -75 75 -14 0 -37 -11 -50 -25z"/>
<path d="M4175 4595 c-14 -13 -25 -36 -25 -50 0 -14 11 -37 25 -50 13 -14 36
-25 50 -25 14 0 37 11 50 25 14 13 25 36 25 50 0 14 -11 37 -25 50 -13 14 -36
25 -50 25 -14 0 -37 -11 -50 -25z"/>
<path d="M8885 4595 c-14 -13 -25 -36 -25 -50 0 -33 42 -75 75 -75 33 0 75 42
75 75 0 33 -42 75 -75 75 -14 0 -37 -11 -50 -25z"/>
<path d="M4625 4575 c-14 -13 -25 -36 -25 -50 0 -27 40 -75 62 -75 8 0 19 -13
25 -30 22 -60 101 -64 132 -8 21 37 6 79 -36 98 -18 8 -33 21 -33 28 0 22 -48
62 -75 62 -14 0 -37 -11 -50 -25z"/>
<path d="M5475 4545 c-14 -13 -25 -36 -25 -50 0 -33 42 -75 75 -75 33 0 75 42
75 75 0 33 -42 75 -75 75 -14 0 -37 -11 -50 -25z"/>
<path d="M11835 4425 c-14 -13 -25 -36 -25 -50 0 -33 42 -75 75 -75 33 0 75
42 75 75 0 33 -42 75 -75 75 -14 0 -37 -11 -50 -25z"/>
<path d="M5855 4255 c-14 -13 -25 -36 -25 -50 0 -33 42 -75 75 -75 33 0 75 42
75 75 0 33 -42 75 -75 75 -14 0 -37 -11 -50 -25z"/>
<path d="M8445 4085 c-14 -13 -25 -36 -25 -50 0 -33 42 -75 75 -75 33 0 75 42
75 75 0 33 -42 75 -75 75 -14 0 -37 -11 -50 -25z"/>
<path d="M5845 3965 c-14 -13 -25 -36 -25 -50 0 -33 42 -75 75 -75 33 0 75 42
75 75 0 33 -42 75 -75 75 -14 0 -37 -11 -50 -25z"/>
<path d="M6235 3825 c-14 -13 -25 -36 -25 -50 0 -33 42 -75 75 -75 33 0 75 42
75 75 0 33 -42 75 -75 75 -14 0 -37 -11 -50 -25z"/>
<path d="M11135 3705 c-14 -13 -25 -36 -25 -50 0 -33 42 -75 75 -75 33 0 75
42 75 75 0 33 -42 75 -75 75 -14 0 -37 -11 -50 -25z"/>
<path d="M8425 3015 c-14 -13 -25 -36 -25 -50 0 -33 42 -75 75 -75 33 0 75 42
75 75 0 33 -42 75 -75 75 -14 0 -37 -11 -50 -25z"/>
</g>
</svg>
